<svg xmlns="http://www.w3.org/2000/svg" xmlns:xlink="http://www.w3.org/1999/xlink" width="500" zoomAndPan="magnify" viewBox="0 0 375 374.999991" height="500" preserveAspectRatio="xMidYMid meet" version="1.0"><defs><clipPath id="3c1391cfc5"><path d="M 317 31.378906 L 375 31.378906 L 375 82 L 317 82 Z M 317 31.378906 " clip-rule="nonzero"/></clipPath><clipPath id="c03f9cf80d"><path d="M 0 109 L 281 109 L 281 337.378906 L 0 337.378906 Z M 0 109 " clip-rule="nonzero"/></clipPath></defs><path fill="#f5e6ca" d="M 50.363281 223.445312 L 219.8125 223.445312 L 219.8125 238.1875 L 50.363281 238.1875 Z M 50.363281 223.445312 " fill-opacity="1" fill-rule="nonzero"/><path fill="#f5e6ca" d="M 50.363281 267.960938 L 219.8125 267.960938 L 219.8125 282.695312 L 50.363281 282.695312 Z M 50.363281 267.960938 " fill-opacity="1" fill-rule="nonzero"/><g clip-path="url(#3c1391cfc5)"><path fill="#f3ad12" d="M 370.007812 47.691406 L 339.859375 32.296875 C 339.367188 32.046875 338.855469 31.847656 338.328125 31.695312 C 337.796875 31.546875 337.257812 31.449219 336.707031 31.40625 C 336.160156 31.363281 335.609375 31.371094 335.0625 31.4375 C 334.515625 31.5 333.980469 31.617188 333.457031 31.789062 C 332.933594 31.957031 332.429688 32.175781 331.949219 32.445312 C 331.46875 32.714844 331.015625 33.027344 330.597656 33.382812 C 330.179688 33.742188 329.796875 34.136719 329.457031 34.566406 C 329.113281 35 328.816406 35.460938 328.566406 35.949219 L 317.136719 58.355469 L 362.234375 81.378906 L 373.671875 58.972656 C 373.921875 58.484375 374.125 57.972656 374.273438 57.441406 C 374.421875 56.914062 374.519531 56.375 374.5625 55.824219 C 374.605469 55.277344 374.597656 54.726562 374.53125 54.179688 C 374.464844 53.632812 374.347656 53.097656 374.179688 52.574219 C 374.007812 52.050781 373.789062 51.546875 373.519531 51.066406 C 373.25 50.585938 372.9375 50.136719 372.578125 49.71875 C 372.222656 49.300781 371.828125 48.917969 371.394531 48.578125 C 370.960938 48.238281 370.5 47.941406 370.007812 47.691406 Z M 370.007812 47.691406 " fill-opacity="1" fill-rule="nonzero"/></g><path fill="#f3ad12" d="M 246.832031 196.03125 L 253.664062 199.515625 L 253.765625 199.28125 L 310.71875 87.757812 C 310.90625 87.390625 311.128906 87.046875 311.382812 86.722656 C 311.640625 86.398438 311.925781 86.101562 312.238281 85.832031 C 312.554688 85.566406 312.890625 85.332031 313.25 85.128906 C 313.613281 84.929688 313.988281 84.765625 314.382812 84.636719 C 314.773438 84.511719 315.175781 84.421875 315.585938 84.375 C 315.996094 84.328125 316.40625 84.320312 316.820312 84.351562 C 317.230469 84.382812 317.632812 84.457031 318.03125 84.570312 C 318.429688 84.683594 318.8125 84.832031 319.179688 85.019531 C 319.546875 85.207031 319.894531 85.429688 320.21875 85.6875 C 320.542969 85.941406 320.835938 86.226562 321.105469 86.542969 C 321.371094 86.855469 321.609375 87.195312 321.808594 87.554688 C 322.011719 87.914062 322.175781 88.292969 322.300781 88.683594 C 322.429688 89.078125 322.515625 89.480469 322.566406 89.890625 C 322.613281 90.300781 322.621094 90.710938 322.585938 91.121094 C 322.554688 91.53125 322.480469 91.9375 322.371094 92.335938 C 322.257812 92.730469 322.105469 93.113281 321.917969 93.484375 L 264.976562 205.003906 L 264.84375 205.226562 L 273.136719 209.441406 L 273.238281 209.210938 L 330.179688 97.6875 C 330.363281 97.308594 330.578125 96.953125 330.832031 96.621094 C 331.085938 96.285156 331.371094 95.980469 331.683594 95.703125 C 332 95.421875 332.335938 95.179688 332.699219 94.96875 C 333.0625 94.761719 333.445312 94.589844 333.839844 94.453125 C 334.238281 94.320312 334.644531 94.226562 335.0625 94.175781 C 335.476562 94.121094 335.894531 94.109375 336.3125 94.140625 C 336.730469 94.171875 337.144531 94.246094 337.546875 94.359375 C 337.949219 94.472656 338.339844 94.621094 338.714844 94.8125 C 339.085938 95.003906 339.4375 95.230469 339.765625 95.492188 C 340.09375 95.75 340.394531 96.042969 340.664062 96.363281 C 340.933594 96.683594 341.171875 97.027344 341.371094 97.394531 C 341.574219 97.765625 341.734375 98.148438 341.859375 98.550781 C 341.984375 98.949219 342.070312 99.359375 342.113281 99.777344 C 342.15625 100.191406 342.15625 100.609375 342.117188 101.027344 C 342.074219 101.445312 341.992188 101.855469 341.871094 102.253906 C 341.75 102.65625 341.589844 103.042969 341.386719 103.410156 L 284.4375 214.933594 C 284.402344 215.007812 284.355469 215.078125 284.3125 215.15625 L 291.933594 219.042969 L 360.015625 85.730469 L 314.925781 62.707031 Z M 246.832031 196.03125 " fill-opacity="1" fill-rule="nonzero"/><path fill="#f3ad12" d="M 246.042969 254.8125 C 243.949219 253.738281 241.730469 253.109375 239.382812 252.925781 C 237.035156 252.746094 234.746094 253.023438 232.511719 253.761719 L 232.261719 281.390625 L 254.558594 264.382812 C 253.789062 262.308594 252.671875 260.445312 251.203125 258.796875 C 249.734375 257.144531 248.015625 255.816406 246.042969 254.8125 Z M 246.042969 254.8125 " fill-opacity="1" fill-rule="nonzero"/><g clip-path="url(#c03f9cf80d)"><path fill="#f5e6ca" d="M 263.21875 266.875 L 258.917969 270.15625 L 258.917969 315.773438 L 22.125 315.773438 L 22.125 186.726562 L 243.464844 186.726562 L 278.414062 118.28125 C 277.660156 116.933594 276.738281 115.707031 275.660156 114.605469 C 274.578125 113.503906 273.371094 112.5625 272.039062 111.78125 C 270.707031 111 269.292969 110.40625 267.804688 110.003906 C 266.3125 109.597656 264.796875 109.394531 263.253906 109.394531 L 17.78125 109.394531 C 17.210938 109.394531 16.644531 109.421875 16.078125 109.480469 C 15.511719 109.535156 14.949219 109.617188 14.390625 109.730469 C 13.832031 109.839844 13.28125 109.980469 12.734375 110.144531 C 12.191406 110.308594 11.65625 110.5 11.128906 110.71875 C 10.605469 110.9375 10.089844 111.179688 9.585938 111.449219 C 9.085938 111.71875 8.597656 112.007812 8.125 112.324219 C 7.652344 112.640625 7.195312 112.980469 6.753906 113.339844 C 6.316406 113.703125 5.894531 114.085938 5.492188 114.488281 C 5.089844 114.890625 4.707031 115.3125 4.347656 115.75 C 3.984375 116.191406 3.648438 116.648438 3.332031 117.121094 C 3.015625 117.59375 2.722656 118.082031 2.453125 118.582031 C 2.1875 119.085938 1.941406 119.597656 1.726562 120.125 C 1.507812 120.652344 1.316406 121.1875 1.152344 121.730469 C 0.984375 122.277344 0.847656 122.828125 0.738281 123.386719 C 0.625 123.945312 0.542969 124.507812 0.488281 125.074219 C 0.429688 125.640625 0.402344 126.207031 0.402344 126.777344 L 0.402344 320.117188 C 0.402344 320.6875 0.429688 321.253906 0.488281 321.820312 C 0.542969 322.386719 0.625 322.949219 0.738281 323.507812 C 0.847656 324.066406 0.988281 324.617188 1.152344 325.160156 C 1.316406 325.707031 1.507812 326.242188 1.726562 326.765625 C 1.945312 327.292969 2.1875 327.804688 2.457031 328.308594 C 2.722656 328.808594 3.015625 329.296875 3.332031 329.769531 C 3.648438 330.246094 3.988281 330.699219 4.347656 331.140625 C 4.710938 331.582031 5.089844 332 5.492188 332.402344 C 5.894531 332.804688 6.316406 333.1875 6.757812 333.550781 C 7.195312 333.910156 7.652344 334.25 8.125 334.566406 C 8.601562 334.882812 9.085938 335.171875 9.589844 335.441406 C 10.089844 335.710938 10.605469 335.953125 11.128906 336.171875 C 11.65625 336.390625 12.191406 336.582031 12.734375 336.746094 C 13.28125 336.910156 13.832031 337.050781 14.390625 337.160156 C 14.949219 337.269531 15.511719 337.355469 16.078125 337.410156 C 16.644531 337.464844 17.210938 337.496094 17.78125 337.496094 L 263.253906 337.496094 C 263.820312 337.496094 264.390625 337.46875 264.957031 337.410156 C 265.523438 337.355469 266.085938 337.273438 266.644531 337.164062 C 267.203125 337.050781 267.753906 336.914062 268.296875 336.75 C 268.84375 336.582031 269.378906 336.390625 269.902344 336.175781 C 270.429688 335.957031 270.945312 335.714844 271.445312 335.445312 C 271.949219 335.175781 272.4375 334.886719 272.910156 334.570312 C 273.382812 334.253906 273.839844 333.914062 274.277344 333.554688 C 274.71875 333.191406 275.140625 332.808594 275.542969 332.40625 C 275.945312 332.003906 276.328125 331.582031 276.6875 331.144531 C 277.050781 330.703125 277.386719 330.246094 277.703125 329.773438 C 278.019531 329.300781 278.3125 328.8125 278.582031 328.3125 C 278.851562 327.808594 279.09375 327.296875 279.3125 326.769531 C 279.527344 326.242188 279.71875 325.707031 279.886719 325.164062 C 280.050781 324.617188 280.1875 324.066406 280.300781 323.507812 C 280.410156 322.949219 280.492188 322.386719 280.550781 321.820312 C 280.605469 321.253906 280.632812 320.6875 280.632812 320.117188 L 280.632812 253.597656 Z M 224.335938 133.429688 L 252.421875 133.429688 L 252.421875 160.496094 L 224.335938 160.496094 Z M 184.023438 133.429688 L 212.121094 133.429688 L 212.121094 160.496094 L 184.023438 160.496094 Z M 144.859375 133.429688 L 172.960938 133.429688 L 172.960938 160.496094 L 144.859375 160.496094 Z M 144.859375 133.429688 " fill-opacity="1" fill-rule="nonzero"/></g><path fill="#e95a19" d="M 232.777344 223.578125 L 232.539062 250.097656 C 233.757812 249.769531 234.996094 249.550781 236.25 249.445312 C 237.507812 249.335938 238.765625 249.34375 240.019531 249.460938 C 241.277344 249.578125 242.511719 249.808594 243.726562 250.148438 C 244.941406 250.488281 246.117188 250.933594 247.253906 251.484375 C 248.386719 252.035156 249.464844 252.679688 250.484375 253.425781 C 251.503906 254.167969 252.449219 254.996094 253.320312 255.910156 C 254.191406 256.820312 254.972656 257.804688 255.667969 258.855469 C 256.363281 259.910156 256.960938 261.015625 257.457031 262.175781 L 277.871094 246.601562 L 289.191406 224.4375 L 244.105469 201.410156 Z M 232.777344 223.578125 " fill-opacity="1" fill-rule="nonzero"/></svg>