<svg xmlns="http://www.w3.org/2000/svg" xmlns:xlink="http://www.w3.org/1999/xlink" width="500" zoomAndPan="magnify" viewBox="0 0 375 374.999991" height="500" preserveAspectRatio="xMidYMid meet" version="1.0"><defs><clipPath id="6d938083e1"><path d="M 37.5 263 L 68 263 L 68 285 L 37.5 285 Z M 37.5 263 " clip-rule="nonzero"/></clipPath></defs><path fill="#ffffff" d="M 80.15625 186.140625 C 71.941406 194.90625 75.238281 208.910156 84.304688 211.933594 C 94.273438 215.257812 112.886719 193.984375 103.582031 194.316406 C 103.070312 194.335938 102.554688 194.308594 102.035156 194.261719 L 98.703125 195.695312 C 97.398438 196.257812 96.023438 196.542969 94.613281 196.542969 C 90.464844 196.542969 86.722656 194.078125 85.085938 190.269531 C 84.382812 188.640625 84.121094 186.898438 84.289062 185.179688 C 82.882812 184.644531 81.246094 184.976562 80.15625 186.140625 Z M 88.210938 197.808594 C 89.585938 197.808594 90.703125 198.921875 90.703125 200.300781 C 90.703125 201.675781 89.585938 202.792969 88.210938 202.792969 C 86.832031 202.792969 85.714844 201.675781 85.714844 200.300781 C 85.714844 198.921875 86.832031 197.808594 88.210938 197.808594 Z M 88.210938 197.808594 " fill-opacity="1" fill-rule="nonzero"/><path fill="#ffffff" d="M 166.699219 124.191406 C 165.886719 124.230469 165.109375 124.398438 164.382812 124.667969 C 162.757812 125.070312 161.238281 125.972656 160.09375 127.367188 L 132.390625 161.160156 L 91.425781 178.777344 C 87.339844 180.535156 85.453125 185.269531 87.210938 189.355469 C 88.523438 192.402344 91.492188 194.226562 94.613281 194.226562 C 95.671875 194.226562 96.753906 194.015625 97.789062 193.570312 L 140.554688 175.179688 C 141.738281 174.667969 142.785156 173.882812 143.601562 172.886719 L 160.277344 152.542969 L 162.796875 206.371094 L 159.910156 208.679688 L 133.332031 229.902344 C 130.742188 231.96875 129.074219 234.972656 128.6875 238.261719 L 121.222656 301.703125 C 120.414062 308.601562 125.347656 314.855469 132.246094 315.664062 C 132.746094 315.722656 133.242188 315.753906 133.734375 315.753906 C 140.023438 315.753906 145.457031 311.042969 146.210938 304.640625 L 153.070312 246.335938 L 187.101562 219.160156 C 187.71875 218.667969 188.269531 218.125 188.765625 217.550781 C 189.261719 216.976562 189.699219 216.363281 190.074219 215.722656 C 190.621094 216.34375 191.21875 216.898438 191.863281 217.390625 C 195.273438 219.988281 199.941406 220.738281 204.167969 218.941406 L 210.007812 216.453125 L 216.851562 213.542969 L 241.320312 203.125 L 259.691406 254.617188 C 261.488281 259.660156 266.234375 262.804688 271.300781 262.804688 C 272.675781 262.804688 274.074219 262.574219 275.445312 262.085938 C 281.855469 259.796875 285.199219 252.742188 282.914062 246.332031 L 260.144531 182.515625 C 259.003906 179.3125 256.589844 176.726562 253.480469 175.363281 C 250.367188 174 246.832031 173.984375 243.703125 175.3125 L 219.347656 185.683594 L 216.382812 186.941406 L 213.984375 135.746094 L 216.9375 134.285156 L 222.5 131.53125 L 250.628906 117.605469 C 253.117188 116.375 254.796875 113.949219 255.070312 111.1875 L 260.386719 57.5625 C 260.828125 53.136719 257.597656 49.195312 253.171875 48.753906 C 248.75 48.3125 244.804688 51.546875 244.367188 55.972656 L 239.488281 105.15625 L 215.867188 116.847656 L 209.769531 119.867188 L 205.035156 122.210938 Z M 166.699219 124.191406 " fill-opacity="1" fill-rule="nonzero"/><path fill="#ffffff" d="M 180.242188 115.671875 C 192.902344 117.734375 204.832031 109.144531 206.894531 96.484375 C 208.957031 83.828125 200.367188 71.894531 187.707031 69.835938 C 175.050781 67.773438 163.117188 76.367188 161.054688 89.023438 C 158.996094 101.679688 167.585938 113.613281 180.242188 115.671875 Z M 180.242188 115.671875 " fill-opacity="1" fill-rule="nonzero"/><path fill="#ffffff" d="M 143.800781 320.234375 C 136.042969 322.226562 122.417969 319.042969 122.417969 319.042969 C 117.097656 318.15625 119.648438 337.519531 131.835938 335.523438 C 144.023438 333.527344 151.554688 318.238281 143.800781 320.234375 Z M 131.445312 330.648438 C 130.070312 330.648438 128.953125 329.53125 128.953125 328.15625 C 128.953125 326.777344 130.070312 325.664062 131.445312 325.664062 C 132.824219 325.664062 133.9375 326.777344 133.9375 328.15625 C 133.9375 329.53125 132.824219 330.648438 131.445312 330.648438 Z M 131.445312 330.648438 " fill-opacity="1" fill-rule="nonzero"/><path fill="#ffffff" d="M 279.132812 281.738281 C 292.179688 277.578125 291.59375 260.414062 284.535156 264.199219 C 277.476562 267.984375 266.058594 267.976562 266.058594 267.976562 C 260.683594 268.382812 267.367188 285.488281 279.132812 281.738281 Z M 277.140625 271.042969 C 278.515625 271.042969 279.632812 272.15625 279.632812 273.535156 C 279.632812 274.910156 278.515625 276.027344 277.140625 276.027344 C 275.761719 276.027344 274.648438 274.910156 274.648438 273.535156 C 274.648438 272.15625 275.761719 271.042969 277.140625 271.042969 Z M 277.140625 271.042969 " fill-opacity="1" fill-rule="nonzero"/><path fill="#ffffff" d="M 262.691406 57.789062 L 261.523438 69.574219 C 270.695312 61.535156 268.925781 47.085938 261.441406 51.101562 C 261.34375 51.152344 261.238281 51.203125 261.136719 51.253906 C 262.324219 53.136719 262.929688 55.410156 262.691406 57.789062 Z M 262.691406 57.789062 " fill-opacity="1" fill-rule="nonzero"/><path fill="#ffffff" d="M 242.0625 55.734375 C 239.527344 55.917969 237.871094 55.917969 237.871094 55.917969 C 233.640625 56.238281 235.269531 64.65625 240.652344 69.945312 L 242.0625 55.746094 C 242.0625 55.742188 242.0625 55.738281 242.0625 55.734375 Z M 242.0625 55.734375 " fill-opacity="1" fill-rule="nonzero"/><path fill="#ffffff" d="M 60.695312 122.230469 C 70.664062 125.554688 89.277344 104.28125 79.972656 104.613281 C 73.285156 104.851562 65.570312 99.257812 61.753906 96.089844 C 60.199219 94.796875 57.929688 94.960938 56.546875 96.4375 C 48.332031 105.203125 51.628906 119.210938 60.695312 122.230469 Z M 64.601562 108.105469 C 65.976562 108.105469 67.09375 109.222656 67.09375 110.597656 C 67.09375 111.972656 65.976562 113.089844 64.601562 113.089844 C 63.222656 113.089844 62.105469 111.972656 62.105469 110.597656 C 62.105469 109.21875 63.222656 108.105469 64.601562 108.105469 Z M 64.601562 108.105469 " fill-opacity="1" fill-rule="nonzero"/><g clip-path="url(#6d938083e1)"><path fill="#ffffff" d="M 64.582031 283.449219 C 65.691406 280.570312 72.339844 272.371094 61.480469 265.28125 C 50.621094 258.191406 37.769531 275.472656 37.769531 275.472656 C 44.640625 284.78125 63.476562 286.332031 64.582031 283.449219 Z M 55.441406 271.429688 C 56.820312 271.429688 57.933594 272.546875 57.933594 273.921875 C 57.933594 275.300781 56.820312 276.414062 55.441406 276.414062 C 54.066406 276.414062 52.949219 275.300781 52.949219 273.921875 C 52.949219 272.546875 54.066406 271.429688 55.441406 271.429688 Z M 55.441406 271.429688 " fill-opacity="1" fill-rule="nonzero"/></g><path fill="#ffffff" d="M 226.121094 259.90625 C 215.632812 255.027344 198.359375 262.695312 198.765625 265.753906 C 199.175781 268.8125 197.269531 279.195312 210.199219 280.214844 C 223.125 281.234375 226.121094 259.90625 226.121094 259.90625 Z M 212.550781 271.925781 C 211.34375 272.582031 209.828125 272.140625 209.167969 270.929688 C 208.507812 269.722656 208.953125 268.207031 210.160156 267.546875 C 211.371094 266.886719 212.882812 267.332031 213.542969 268.542969 C 214.203125 269.75 213.757812 271.265625 212.550781 271.925781 Z M 212.550781 271.925781 " fill-opacity="1" fill-rule="nonzero"/><path fill="#ffffff" d="M 311.664062 154.855469 C 325.316406 155.902344 331.222656 139.773438 323.261719 140.628906 C 315.296875 141.484375 304.71875 137.1875 304.71875 137.1875 C 299.585938 135.546875 299.351562 153.910156 311.664062 154.855469 Z M 310.589844 145.566406 C 311.105469 144.289062 312.558594 143.675781 313.835938 144.191406 C 315.113281 144.707031 315.726562 146.164062 315.210938 147.4375 C 314.691406 148.714844 313.238281 149.328125 311.960938 148.8125 C 310.6875 148.292969 310.070312 146.839844 310.589844 145.566406 Z M 310.589844 145.566406 " fill-opacity="1" fill-rule="nonzero"/><path fill="#ffffff" d="M 131.421875 64.691406 C 148.066406 59.386719 147.316406 37.488281 138.3125 42.316406 C 129.308594 47.144531 114.742188 47.136719 114.742188 47.136719 C 107.882812 47.652344 116.410156 69.480469 131.421875 64.691406 Z M 128.875 51.046875 C 130.632812 51.046875 132.058594 52.46875 132.058594 54.226562 C 132.058594 55.980469 130.632812 57.40625 128.875 57.40625 C 127.121094 57.40625 125.695312 55.980469 125.695312 54.226562 C 125.695312 52.46875 127.121094 51.046875 128.875 51.046875 Z M 128.875 51.046875 " fill-opacity="1" fill-rule="nonzero"/></svg>