<svg xmlns="http://www.w3.org/2000/svg" xmlns:xlink="http://www.w3.org/1999/xlink" width="500" zoomAndPan="magnify" viewBox="0 0 375 374.999991" height="500" preserveAspectRatio="xMidYMid meet" version="1.0"><defs><clipPath id="bfc7b2c449"><path d="M 28.84375 91 L 303 91 L 303 364.445312 L 28.84375 364.445312 Z M 28.84375 91 " clip-rule="nonzero"/></clipPath><clipPath id="6b04bf83af"><path d="M 329 1.445312 L 375 1.445312 L 375 49 L 329 49 Z M 329 1.445312 " clip-rule="nonzero"/></clipPath></defs><path fill="#e95a19" d="M 171.621094 194.28125 C 170.40625 194.058594 169.183594 193.898438 167.953125 193.808594 C 166.722656 193.714844 165.492188 193.691406 164.257812 193.730469 C 163.023438 193.773438 161.796875 193.878906 160.574219 194.054688 C 159.351562 194.230469 158.144531 194.46875 156.945312 194.773438 C 155.75 195.078125 154.574219 195.445312 153.417969 195.878906 C 152.261719 196.308594 151.132812 196.804688 150.03125 197.355469 C 148.925781 197.910156 147.855469 198.523438 146.820312 199.191406 C 145.785156 199.863281 144.785156 200.585938 143.828125 201.363281 C 142.871094 202.140625 141.957031 202.96875 141.085938 203.84375 C 140.21875 204.722656 139.398438 205.640625 138.628906 206.605469 C 137.859375 207.574219 137.144531 208.574219 136.484375 209.617188 C 135.824219 210.660156 135.21875 211.734375 134.675781 212.84375 C 134.128906 213.949219 133.648438 215.085938 133.226562 216.246094 C 132.804688 217.40625 132.445312 218.582031 132.148438 219.78125 C 131.855469 220.980469 131.625 222.191406 131.460938 223.414062 C 131.300781 224.636719 131.203125 225.867188 131.171875 227.101562 C 131.140625 228.335938 131.175781 229.566406 131.277344 230.796875 C 131.382812 232.027344 131.550781 233.246094 131.785156 234.460938 C 132.019531 235.671875 132.316406 236.867188 132.683594 238.046875 C 133.046875 239.226562 133.472656 240.382812 133.960938 241.515625 C 134.449219 242.648438 134.996094 243.753906 135.605469 244.824219 C 136.214844 245.898438 136.878906 246.9375 137.597656 247.941406 C 138.320312 248.941406 139.089844 249.902344 139.917969 250.820312 C 140.742188 251.738281 141.613281 252.613281 142.53125 253.4375 C 143.449219 254.261719 144.410156 255.03125 145.410156 255.753906 C 146.414062 256.472656 147.453125 257.136719 148.523438 257.746094 C 149.597656 258.355469 150.703125 258.902344 151.835938 259.394531 C 152.96875 259.882812 154.125 260.308594 155.304688 260.671875 C 156.484375 261.035156 157.679688 261.335938 158.890625 261.570312 C 160.101562 261.804688 161.324219 261.972656 162.554688 262.074219 C 163.785156 262.179688 165.015625 262.214844 166.25 262.183594 C 167.484375 262.152344 168.710938 262.054688 169.9375 261.894531 C 171.160156 261.730469 172.371094 261.5 173.570312 261.207031 C 174.765625 260.910156 175.945312 260.554688 177.105469 260.132812 C 178.265625 259.710938 179.398438 259.226562 180.507812 258.683594 C 181.617188 258.136719 182.691406 257.535156 183.734375 256.875 C 184.777344 256.214844 185.777344 255.5 186.746094 254.730469 C 187.710938 253.960938 188.628906 253.140625 189.507812 252.273438 C 190.382812 251.402344 191.210938 250.488281 191.988281 249.53125 C 192.765625 248.574219 193.488281 247.574219 194.160156 246.539062 C 194.828125 245.5 195.441406 244.433594 195.996094 243.328125 C 196.550781 242.226562 197.042969 241.097656 197.476562 239.941406 C 197.90625 238.785156 198.277344 237.609375 198.582031 236.414062 C 198.886719 235.214844 199.125 234.007812 199.300781 232.785156 C 199.472656 231.5625 199.582031 230.335938 199.625 229.101562 C 199.664062 227.871094 199.640625 226.636719 199.546875 225.40625 C 199.457031 224.175781 199.296875 222.953125 199.074219 221.738281 C 198.851562 220.527344 198.5625 219.328125 198.207031 218.144531 L 157.183594 237.074219 Z M 171.621094 194.28125 " fill-opacity="1" fill-rule="nonzero"/><g clip-path="url(#bfc7b2c449)"><path fill="#f3ad12" d="M 254.699219 162.03125 C 256.046875 163.859375 257.335938 165.722656 258.566406 167.628906 C 259.800781 169.535156 260.972656 171.476562 262.085938 173.453125 C 263.199219 175.429688 264.25 177.441406 265.242188 179.480469 C 266.230469 181.523438 267.15625 183.59375 268.019531 185.691406 C 268.882812 187.789062 269.679688 189.914062 270.414062 192.058594 C 271.148438 194.207031 271.8125 196.375 272.414062 198.5625 C 273.011719 200.753906 273.546875 202.957031 274.007812 205.175781 C 274.472656 207.398438 274.871094 209.632812 275.199219 211.875 C 275.527344 214.121094 275.785156 216.375 275.972656 218.636719 C 276.164062 220.898438 276.285156 223.160156 276.335938 225.429688 C 276.386719 227.699219 276.367188 229.964844 276.277344 232.234375 C 276.191406 234.5 276.03125 236.765625 275.804688 239.019531 C 275.578125 241.277344 275.28125 243.527344 274.917969 245.765625 C 274.550781 248.007812 274.117188 250.234375 273.617188 252.445312 C 273.113281 254.660156 272.546875 256.855469 271.910156 259.03125 C 271.273438 261.210938 270.570312 263.367188 269.804688 265.5 C 269.035156 267.636719 268.199219 269.746094 267.304688 271.828125 C 266.40625 273.914062 265.445312 275.96875 264.421875 277.992188 C 263.398438 280.015625 262.3125 282.007812 261.167969 283.96875 C 260.019531 285.925781 258.816406 287.847656 257.550781 289.730469 C 256.289062 291.617188 254.96875 293.460938 253.589844 295.261719 C 252.214844 297.066406 250.78125 298.828125 249.296875 300.542969 C 247.8125 302.257812 246.277344 303.925781 244.691406 305.546875 C 243.101562 307.167969 241.46875 308.742188 239.785156 310.261719 C 238.101562 311.785156 236.371094 313.25 234.597656 314.667969 C 232.824219 316.082031 231.011719 317.441406 229.152344 318.746094 C 227.296875 320.050781 225.402344 321.296875 223.46875 322.484375 C 221.535156 323.671875 219.566406 324.796875 217.5625 325.867188 C 215.5625 326.933594 213.527344 327.9375 211.464844 328.878906 C 209.398438 329.820312 207.308594 330.699219 205.191406 331.515625 C 203.074219 332.328125 200.933594 333.078125 198.769531 333.757812 C 196.605469 334.441406 194.421875 335.058594 192.21875 335.605469 C 190.019531 336.15625 187.800781 336.636719 185.570312 337.050781 C 183.339844 337.460938 181.097656 337.808594 178.847656 338.082031 C 176.59375 338.359375 174.335938 338.566406 172.070312 338.703125 C 169.804688 338.839844 167.539062 338.90625 165.269531 338.902344 C 163 338.902344 160.734375 338.832031 158.46875 338.691406 C 156.203125 338.546875 153.945312 338.339844 151.695312 338.058594 C 149.441406 337.777344 147.203125 337.429688 144.972656 337.015625 C 142.742188 336.597656 140.527344 336.113281 138.324219 335.558594 C 136.125 335.007812 133.941406 334.386719 131.78125 333.699219 C 129.617188 333.015625 127.476562 332.261719 125.359375 331.445312 C 123.246094 330.625 121.15625 329.742188 119.09375 328.796875 C 117.03125 327.851562 115 326.84375 113 325.773438 C 110.996094 324.703125 109.03125 323.570312 107.101562 322.378906 C 105.167969 321.191406 103.277344 319.941406 101.421875 318.632812 C 99.566406 317.324219 97.753906 315.964844 95.984375 314.542969 C 94.210938 313.125 92.488281 311.65625 90.804688 310.132812 C 89.125 308.605469 87.492188 307.03125 85.90625 305.40625 C 84.324219 303.785156 82.789062 302.113281 81.308594 300.394531 C 79.828125 298.675781 78.398438 296.914062 77.027344 295.109375 C 75.652344 293.300781 74.335938 291.457031 73.074219 289.570312 C 71.8125 287.683594 70.613281 285.757812 69.46875 283.796875 C 68.328125 281.835938 67.246094 279.84375 66.226562 277.816406 C 65.207031 275.789062 64.25 273.734375 63.355469 271.648438 C 62.460938 269.5625 61.628906 267.453125 60.867188 265.316406 C 60.101562 263.179688 59.402344 261.023438 58.769531 258.84375 C 58.136719 256.664062 57.574219 254.46875 57.074219 252.253906 C 56.578125 250.039062 56.148438 247.8125 55.785156 245.574219 C 55.425781 243.332031 55.132812 241.085938 54.910156 238.828125 C 54.6875 236.570312 54.535156 234.304688 54.449219 232.039062 C 54.363281 229.769531 54.351562 227.503906 54.40625 225.234375 C 54.460938 222.964844 54.582031 220.703125 54.777344 218.441406 C 54.96875 216.179688 55.234375 213.925781 55.566406 211.683594 C 55.898438 209.4375 56.296875 207.207031 56.765625 204.984375 C 57.234375 202.765625 57.769531 200.5625 58.375 198.375 C 58.976562 196.1875 59.648438 194.019531 60.382812 191.875 C 61.121094 189.730469 61.921875 187.605469 62.789062 185.511719 C 63.65625 183.414062 64.585938 181.34375 65.582031 179.304688 C 66.574219 177.265625 67.628906 175.257812 68.746094 173.28125 C 69.863281 171.308594 71.039062 169.367188 72.273438 167.464844 C 73.511719 165.5625 74.800781 163.699219 76.152344 161.875 C 77.503906 160.050781 78.90625 158.269531 80.367188 156.53125 C 81.824219 154.796875 83.335938 153.105469 84.898438 151.457031 C 86.460938 149.8125 88.074219 148.21875 89.734375 146.671875 C 91.394531 145.125 93.101562 143.632812 94.855469 142.191406 C 96.605469 140.75 98.402344 139.363281 100.238281 138.03125 C 102.074219 136.699219 103.953125 135.425781 105.867188 134.210938 C 107.78125 132.992188 109.734375 131.835938 111.71875 130.738281 C 113.707031 129.644531 115.722656 128.609375 117.773438 127.636719 C 119.824219 126.664062 121.902344 125.753906 124.007812 124.90625 C 126.113281 124.0625 128.242188 123.28125 130.394531 122.566406 C 132.550781 121.851562 134.722656 121.203125 136.914062 120.621094 C 139.109375 120.042969 141.316406 119.527344 143.542969 119.082031 C 145.765625 118.636719 148.003906 118.257812 150.25 117.949219 C 152.5 117.640625 154.753906 117.398438 157.015625 117.230469 C 159.28125 117.058594 161.546875 116.957031 163.8125 116.925781 C 166.082031 116.894531 168.351562 116.929688 170.617188 117.039062 C 172.882812 117.144531 175.144531 117.324219 177.398438 117.570312 C 179.65625 117.8125 181.902344 118.128906 184.136719 118.511719 C 186.375 118.898438 188.597656 119.347656 190.804688 119.867188 C 193.015625 120.386719 195.203125 120.976562 197.378906 121.628906 C 199.550781 122.285156 201.699219 123.003906 203.828125 123.792969 C 205.957031 124.578125 208.058594 125.429688 210.136719 126.34375 C 212.210938 127.257812 214.257812 128.238281 216.273438 129.277344 C 218.292969 130.316406 220.273438 131.417969 222.222656 132.582031 L 239.777344 113.339844 C 237.402344 111.796875 234.984375 110.332031 232.519531 108.9375 C 230.054688 107.546875 227.550781 106.234375 225.003906 104.996094 C 222.457031 103.761719 219.875 102.605469 217.257812 101.527344 C 214.640625 100.453125 211.992188 99.460938 209.308594 98.546875 C 206.628906 97.636719 203.925781 96.808594 201.195312 96.066406 C 198.464844 95.324219 195.710938 94.667969 192.9375 94.09375 C 190.167969 93.523438 187.378906 93.035156 184.578125 92.636719 C 181.777344 92.238281 178.964844 91.925781 176.144531 91.703125 C 173.320312 91.476562 170.496094 91.339844 167.664062 91.292969 C 164.835938 91.242188 162.007812 91.28125 159.179688 91.40625 C 156.351562 91.535156 153.53125 91.75 150.714844 92.050781 C 147.902344 92.351562 145.097656 92.742188 142.308594 93.21875 C 139.519531 93.695312 136.746094 94.257812 133.992188 94.90625 C 131.234375 95.550781 128.503906 96.285156 125.792969 97.105469 C 123.082031 97.921875 120.402344 98.824219 117.75 99.808594 C 115.09375 100.792969 112.472656 101.859375 109.886719 103.003906 C 107.300781 104.152344 104.75 105.378906 102.238281 106.683594 C 99.726562 107.992188 97.257812 109.375 94.832031 110.832031 C 92.40625 112.292969 90.03125 113.824219 87.699219 115.429688 C 85.371094 117.039062 83.089844 118.714844 80.867188 120.464844 C 78.640625 122.210938 76.46875 124.027344 74.355469 125.910156 C 72.242188 127.792969 70.191406 129.738281 68.199219 131.75 C 66.207031 133.761719 64.277344 135.832031 62.414062 137.960938 C 60.550781 140.09375 58.753906 142.277344 57.027344 144.519531 C 55.300781 146.761719 53.640625 149.054688 52.058594 151.398438 C 50.472656 153.746094 48.960938 156.136719 47.523438 158.574219 C 46.085938 161.011719 44.726562 163.492188 43.445312 166.015625 C 42.160156 168.539062 40.957031 171.101562 39.832031 173.699219 C 38.710938 176.296875 37.667969 178.925781 36.707031 181.589844 C 35.746094 184.25 34.871094 186.941406 34.078125 189.65625 C 33.285156 192.375 32.574219 195.113281 31.953125 197.875 C 31.328125 200.636719 30.792969 203.414062 30.339844 206.207031 C 29.890625 209.003906 29.527344 211.808594 29.25 214.625 C 28.972656 217.441406 28.785156 220.265625 28.683594 223.09375 C 28.582031 225.921875 28.570312 228.75 28.644531 231.582031 C 28.71875 234.410156 28.882812 237.234375 29.132812 240.054688 C 29.382812 242.875 29.71875 245.683594 30.144531 248.480469 C 30.570312 251.277344 31.078125 254.0625 31.675781 256.828125 C 32.273438 259.59375 32.957031 262.339844 33.726562 265.066406 C 34.492188 267.789062 35.34375 270.488281 36.28125 273.160156 C 37.214844 275.828125 38.234375 278.46875 39.332031 281.078125 C 40.433594 283.6875 41.613281 286.257812 42.871094 288.792969 C 44.128906 291.328125 45.46875 293.820312 46.882812 296.273438 C 48.296875 298.722656 49.785156 301.128906 51.347656 303.488281 C 52.910156 305.847656 54.546875 308.15625 56.253906 310.414062 C 57.960938 312.671875 59.734375 314.875 61.578125 317.023438 C 63.421875 319.171875 65.332031 321.257812 67.304688 323.289062 C 69.277344 325.316406 71.3125 327.28125 73.410156 329.1875 C 75.503906 331.089844 77.65625 332.925781 79.867188 334.691406 C 82.078125 336.460938 84.339844 338.160156 86.652344 339.789062 C 88.96875 341.417969 91.332031 342.972656 93.746094 344.453125 C 96.15625 345.9375 98.613281 347.339844 101.109375 348.671875 C 103.609375 350 106.148438 351.25 108.722656 352.421875 C 111.300781 353.59375 113.910156 354.683594 116.554688 355.691406 C 119.199219 356.699219 121.871094 357.628906 124.574219 358.46875 C 127.277344 359.3125 130.003906 360.074219 132.75 360.746094 C 135.5 361.421875 138.269531 362.007812 141.054688 362.511719 C 143.839844 363.011719 146.636719 363.425781 149.449219 363.753906 C 152.261719 364.082031 155.078125 364.324219 157.90625 364.476562 C 160.730469 364.628906 163.558594 364.695312 166.390625 364.671875 C 169.222656 364.652344 172.046875 364.539062 174.871094 364.34375 C 177.695312 364.144531 180.507812 363.859375 183.316406 363.484375 C 186.121094 363.113281 188.914062 362.652344 191.691406 362.105469 C 194.46875 361.558594 197.226562 360.929688 199.960938 360.210938 C 202.699219 359.492188 205.414062 358.691406 208.101562 357.804688 C 210.789062 356.917969 213.449219 355.949219 216.074219 354.898438 C 218.703125 353.847656 221.296875 352.714844 223.855469 351.503906 C 226.410156 350.289062 228.929688 349 231.40625 347.632812 C 233.882812 346.261719 236.316406 344.816406 238.707031 343.296875 C 241.09375 341.777344 243.429688 340.1875 245.71875 338.519531 C 248.007812 336.855469 250.242188 335.121094 252.425781 333.316406 C 254.605469 331.511719 256.730469 329.644531 258.792969 327.707031 C 260.859375 325.773438 262.863281 323.773438 264.804688 321.714844 C 266.742188 319.652344 268.617188 317.535156 270.429688 315.359375 C 272.238281 313.183594 273.976562 310.949219 275.648438 308.667969 C 277.320312 306.382812 278.917969 304.046875 280.441406 301.664062 C 281.96875 299.277344 283.417969 296.851562 284.792969 294.375 C 286.167969 291.902344 287.464844 289.386719 288.683594 286.832031 C 289.902344 284.277344 291.042969 281.6875 292.097656 279.0625 C 293.15625 276.4375 294.132812 273.78125 295.023438 271.09375 C 295.917969 268.410156 296.726562 265.699219 297.449219 262.960938 C 298.175781 260.226562 298.8125 257.46875 299.367188 254.695312 C 299.921875 251.917969 300.386719 249.128906 300.765625 246.324219 C 301.148438 243.519531 301.441406 240.703125 301.644531 237.882812 C 301.851562 235.058594 301.96875 232.230469 301.996094 229.402344 C 302.027344 226.570312 301.96875 223.742188 301.820312 220.914062 C 301.675781 218.089844 301.441406 215.269531 301.121094 212.457031 C 300.800781 209.644531 300.390625 206.847656 299.894531 204.058594 C 299.402344 201.273438 298.820312 198.503906 298.152344 195.753906 C 297.484375 193.003906 296.734375 190.273438 295.898438 187.570312 C 295.058594 184.867188 294.140625 182.191406 293.136719 179.542969 C 292.136719 176.898438 291.050781 174.285156 289.886719 171.703125 C 288.722656 169.125 287.476562 166.585938 286.15625 164.082031 C 284.832031 161.578125 283.433594 159.121094 281.957031 156.707031 C 280.480469 154.289062 278.933594 151.921875 277.308594 149.605469 C 275.6875 147.285156 273.992188 145.019531 272.230469 142.804688 Z M 254.699219 162.03125 " fill-opacity="1" fill-rule="nonzero"/></g><path fill="#f5e6ca" d="M 216.957031 195.808594 L 192.140625 173.160156 L 179.476562 187.042969 L 165.828125 227.4375 L 204.289062 209.695312 Z M 216.957031 195.808594 " fill-opacity="1" fill-rule="nonzero"/><path fill="#f5e6ca" d="M 285.613281 70.664062 L 197.214844 167.578125 L 222.058594 190.226562 L 309.910156 93.882812 L 285.117188 97.132812 Z M 285.613281 70.664062 " fill-opacity="1" fill-rule="nonzero"/><path fill="#f5e6ca" d="M 300.21875 80.304688 L 300.71875 53.527344 L 291.0625 44.738281 L 291.035156 44.777344 L 290.148438 91.550781 L 335.75 85.566406 L 335.789062 85.527344 L 326.324219 76.890625 Z M 300.21875 80.304688 " fill-opacity="1" fill-rule="nonzero"/><path fill="#f5e6ca" d="M 319.621094 59.03125 L 320.117188 32.253906 L 310.464844 23.460938 L 310.421875 23.503906 L 309.550781 70.277344 L 355.148438 64.292969 L 355.191406 64.25 L 345.726562 55.617188 Z M 319.621094 59.03125 " fill-opacity="1" fill-rule="nonzero"/><path fill="#f5e6ca" d="M 165.441406 142.507812 C 163.867188 142.503906 162.296875 142.546875 160.730469 142.628906 C 159.160156 142.714844 157.59375 142.839844 156.03125 143.011719 C 154.46875 143.179688 152.914062 143.394531 151.363281 143.652344 C 149.8125 143.90625 148.269531 144.207031 146.738281 144.546875 C 145.203125 144.886719 143.679688 145.269531 142.167969 145.695312 C 140.652344 146.121094 139.152344 146.589844 137.667969 147.097656 C 136.179688 147.605469 134.707031 148.152344 133.25 148.742188 C 131.792969 149.332031 130.355469 149.960938 128.933594 150.628906 C 127.507812 151.296875 126.105469 152.003906 124.722656 152.75 C 123.339844 153.496094 121.976562 154.277344 120.636719 155.097656 C 119.296875 155.917969 117.980469 156.777344 116.6875 157.667969 C 115.394531 158.5625 114.128906 159.492188 112.886719 160.453125 C 111.644531 161.417969 110.429688 162.414062 109.246094 163.445312 C 108.058594 164.472656 106.898438 165.535156 105.773438 166.628906 C 104.644531 167.722656 103.546875 168.847656 102.480469 170.003906 C 101.414062 171.15625 100.378906 172.339844 99.378906 173.550781 C 98.378906 174.761719 97.410156 176 96.476562 177.265625 C 95.546875 178.53125 94.648438 179.820312 93.785156 181.132812 C 92.925781 182.449219 92.101562 183.785156 91.3125 185.144531 C 90.523438 186.503906 89.773438 187.882812 89.0625 189.285156 C 88.351562 190.6875 87.675781 192.105469 87.042969 193.542969 C 86.410156 194.980469 85.816406 196.4375 85.261719 197.90625 C 84.707031 199.378906 84.195312 200.863281 83.722656 202.359375 C 83.253906 203.859375 82.824219 205.371094 82.433594 206.894531 C 82.046875 208.417969 81.699219 209.949219 81.394531 211.492188 C 81.089844 213.03125 80.832031 214.582031 80.613281 216.136719 C 80.394531 217.695312 80.21875 219.253906 80.085938 220.820312 C 79.953125 222.386719 79.863281 223.953125 79.816406 225.527344 C 79.773438 227.097656 79.769531 228.667969 79.808594 230.238281 C 79.851562 231.808594 79.933594 233.378906 80.058594 234.945312 C 80.1875 236.511719 80.355469 238.070312 80.570312 239.628906 C 80.785156 241.1875 81.039062 242.734375 81.335938 244.277344 C 81.636719 245.820312 81.976562 247.355469 82.359375 248.878906 C 82.742188 250.402344 83.167969 251.914062 83.632812 253.417969 C 84.101562 254.917969 84.609375 256.402344 85.15625 257.875 C 85.703125 259.347656 86.292969 260.804688 86.921875 262.246094 C 87.550781 263.6875 88.21875 265.109375 88.925781 266.511719 C 89.632812 267.914062 90.378906 269.296875 91.160156 270.660156 C 91.945312 272.023438 92.765625 273.363281 93.621094 274.679688 C 94.476562 275.996094 95.371094 277.289062 96.300781 278.558594 C 97.226562 279.824219 98.191406 281.066406 99.1875 282.28125 C 100.183594 283.496094 101.214844 284.683594 102.273438 285.839844 C 103.335938 287 104.429688 288.128906 105.554688 289.226562 C 106.679688 290.324219 107.832031 291.390625 109.015625 292.421875 C 110.199219 293.457031 111.410156 294.457031 112.648438 295.425781 C 113.886719 296.394531 115.152344 297.324219 116.441406 298.222656 C 117.730469 299.121094 119.042969 299.984375 120.382812 300.808594 C 121.71875 301.632812 123.078125 302.421875 124.457031 303.171875 C 125.839844 303.921875 127.238281 304.636719 128.660156 305.308594 C 130.078125 305.984375 131.515625 306.617188 132.96875 307.210938 C 134.425781 307.804688 135.894531 308.359375 137.378906 308.871094 C 138.867188 309.382812 140.363281 309.855469 141.875 310.285156 C 143.386719 310.71875 144.910156 311.105469 146.441406 311.453125 C 147.972656 311.800781 149.515625 312.101562 151.066406 312.363281 C 152.613281 312.625 154.171875 312.84375 155.730469 313.019531 C 157.292969 313.199219 158.859375 313.332031 160.425781 313.417969 C 161.996094 313.507812 163.566406 313.554688 165.136719 313.558594 C 166.710938 313.5625 168.28125 313.523438 169.847656 313.4375 C 171.417969 313.355469 172.984375 313.226562 174.546875 313.058594 C 176.109375 312.890625 177.664062 312.675781 179.214844 312.421875 C 180.765625 312.164062 182.308594 311.867188 183.84375 311.527344 C 185.375 311.1875 186.902344 310.804688 188.414062 310.378906 C 189.925781 309.953125 191.425781 309.488281 192.914062 308.980469 C 194.402344 308.472656 195.875 307.925781 197.332031 307.335938 C 198.789062 306.75 200.226562 306.121094 201.652344 305.453125 C 203.074219 304.785156 204.476562 304.078125 205.859375 303.332031 C 207.242188 302.589844 208.605469 301.804688 209.945312 300.984375 C 211.285156 300.164062 212.601562 299.308594 213.894531 298.417969 C 215.191406 297.523438 216.457031 296.597656 217.699219 295.632812 C 218.941406 294.671875 220.15625 293.675781 221.34375 292.644531 C 222.53125 291.613281 223.6875 290.554688 224.816406 289.460938 C 225.945312 288.367188 227.042969 287.242188 228.109375 286.089844 C 229.175781 284.933594 230.210938 283.753906 231.210938 282.542969 C 232.214844 281.332031 233.179688 280.09375 234.113281 278.828125 C 235.046875 277.566406 235.945312 276.277344 236.808594 274.960938 C 237.671875 273.648438 238.496094 272.3125 239.285156 270.953125 C 240.074219 269.59375 240.824219 268.214844 241.535156 266.8125 C 242.25 265.410156 242.921875 263.992188 243.554688 262.554688 C 244.191406 261.117188 244.785156 259.664062 245.339844 258.191406 C 245.894531 256.722656 246.40625 255.238281 246.878906 253.738281 C 247.351562 252.238281 247.78125 250.730469 248.171875 249.207031 C 248.558594 247.683594 248.90625 246.152344 249.210938 244.609375 C 249.515625 243.066406 249.777344 241.519531 249.996094 239.964844 C 250.214844 238.40625 250.394531 236.847656 250.527344 235.28125 C 250.660156 233.714844 250.75 232.144531 250.796875 230.574219 C 250.84375 229.003906 250.847656 227.433594 250.804688 225.863281 C 250.765625 224.292969 250.683594 222.722656 250.558594 221.15625 C 250.429688 219.589844 250.261719 218.027344 250.046875 216.472656 C 249.835938 214.914062 249.582031 213.363281 249.28125 211.820312 C 248.984375 210.277344 248.644531 208.746094 248.261719 207.222656 C 247.878906 205.695312 247.457031 204.183594 246.992188 202.683594 C 246.523438 201.183594 246.019531 199.695312 245.46875 198.222656 C 244.921875 196.75 244.335938 195.292969 243.707031 193.851562 C 243.078125 192.410156 242.410156 190.988281 241.703125 189.585938 C 241 188.183594 240.253906 186.800781 239.472656 185.4375 C 238.6875 184.074219 237.867188 182.734375 237.011719 181.414062 L 222.398438 197.453125 L 218.941406 201.234375 C 219.453125 202.265625 219.933594 203.304688 220.386719 204.363281 C 220.835938 205.417969 221.257812 206.484375 221.648438 207.566406 C 222.039062 208.644531 222.398438 209.738281 222.726562 210.835938 C 223.050781 211.9375 223.347656 213.046875 223.609375 214.164062 C 223.875 215.285156 224.105469 216.410156 224.304688 217.539062 C 224.503906 218.671875 224.667969 219.808594 224.800781 220.949219 C 224.933594 222.089844 225.035156 223.230469 225.101562 224.378906 C 225.167969 225.523438 225.203125 226.671875 225.203125 227.820312 C 225.207031 228.96875 225.171875 230.117188 225.109375 231.265625 C 225.042969 232.410156 224.945312 233.554688 224.8125 234.695312 C 224.683594 235.835938 224.519531 236.972656 224.324219 238.105469 C 224.125 239.234375 223.898438 240.359375 223.636719 241.480469 C 223.375 242.597656 223.082031 243.707031 222.753906 244.808594 C 222.429688 245.910156 222.074219 247.003906 221.683594 248.082031 C 221.296875 249.164062 220.878906 250.234375 220.429688 251.289062 C 219.976562 252.347656 219.496094 253.390625 218.988281 254.417969 C 218.476562 255.445312 217.9375 256.460938 217.371094 257.457031 C 216.800781 258.457031 216.207031 259.4375 215.582031 260.402344 C 214.957031 261.363281 214.304688 262.308594 213.625 263.234375 C 212.945312 264.160156 212.238281 265.066406 211.507812 265.953125 C 210.773438 266.835938 210.019531 267.703125 209.238281 268.542969 C 208.457031 269.386719 207.652344 270.203125 206.824219 271 C 205.992188 271.792969 205.144531 272.566406 204.269531 273.3125 C 203.398438 274.058594 202.503906 274.777344 201.589844 275.472656 C 200.675781 276.167969 199.738281 276.835938 198.789062 277.476562 C 197.835938 278.117188 196.863281 278.730469 195.875 279.316406 C 194.886719 279.898438 193.882812 280.457031 192.863281 280.984375 C 191.839844 281.511719 190.804688 282.007812 189.757812 282.476562 C 188.707031 282.941406 187.648438 283.378906 186.574219 283.785156 C 185.5 284.191406 184.414062 284.566406 183.316406 284.910156 C 182.222656 285.253906 181.117188 285.566406 180.003906 285.84375 C 178.886719 286.125 177.765625 286.375 176.640625 286.589844 C 175.511719 286.804688 174.378906 286.988281 173.238281 287.136719 C 172.101562 287.285156 170.957031 287.402344 169.8125 287.488281 C 168.667969 287.570312 167.519531 287.625 166.371094 287.640625 C 165.222656 287.660156 164.074219 287.644531 162.929688 287.597656 C 161.78125 287.546875 160.636719 287.46875 159.492188 287.351562 C 158.351562 287.238281 157.210938 287.09375 156.078125 286.914062 C 154.941406 286.734375 153.8125 286.519531 152.691406 286.277344 C 151.570312 286.03125 150.457031 285.753906 149.351562 285.445312 C 148.242188 285.136719 147.148438 284.796875 146.0625 284.421875 C 144.972656 284.050781 143.898438 283.648438 142.835938 283.214844 C 141.773438 282.78125 140.722656 282.316406 139.6875 281.820312 C 138.648438 281.324219 137.628906 280.800781 136.621094 280.25 C 135.617188 279.695312 134.625 279.113281 133.652344 278.503906 C 132.679688 277.890625 131.726562 277.253906 130.789062 276.585938 C 129.855469 275.921875 128.9375 275.230469 128.042969 274.511719 C 127.144531 273.792969 126.269531 273.050781 125.417969 272.28125 C 124.566406 271.511719 123.734375 270.71875 122.925781 269.902344 C 122.121094 269.085938 121.335938 268.246094 120.578125 267.382812 C 119.816406 266.523438 119.082031 265.640625 118.375 264.734375 C 117.667969 263.832031 116.984375 262.90625 116.332031 261.964844 C 115.675781 261.019531 115.046875 260.058594 114.449219 259.078125 C 113.847656 258.101562 113.277344 257.105469 112.734375 256.089844 C 112.195312 255.078125 111.679688 254.050781 111.199219 253.007812 C 110.714844 251.96875 110.261719 250.914062 109.839844 249.84375 C 109.417969 248.777344 109.027344 247.695312 108.667969 246.605469 C 108.308594 245.515625 107.980469 244.414062 107.683594 243.304688 C 107.386719 242.195312 107.121094 241.078125 106.890625 239.953125 C 106.660156 238.828125 106.457031 237.699219 106.292969 236.5625 C 106.125 235.425781 105.992188 234.285156 105.890625 233.140625 C 105.789062 231.996094 105.71875 230.851562 105.683594 229.703125 C 105.648438 228.554688 105.648438 227.40625 105.679688 226.257812 C 105.710938 225.113281 105.773438 223.964844 105.871094 222.820312 C 105.96875 221.675781 106.097656 220.535156 106.261719 219.398438 C 106.425781 218.261719 106.621094 217.128906 106.847656 216.003906 C 107.074219 214.878906 107.335938 213.761719 107.628906 212.652344 C 107.921875 211.539062 108.246094 210.4375 108.601562 209.347656 C 108.957031 208.253906 109.34375 207.175781 109.761719 206.105469 C 110.179688 205.035156 110.628906 203.976562 111.109375 202.933594 C 111.589844 201.890625 112.097656 200.863281 112.636719 199.847656 C 113.175781 198.832031 113.742188 197.835938 114.335938 196.851562 C 114.933594 195.871094 115.558594 194.90625 116.210938 193.960938 C 116.859375 193.015625 117.539062 192.089844 118.242188 191.183594 C 118.949219 190.277344 119.679688 189.390625 120.4375 188.527344 C 121.191406 187.660156 121.972656 186.820312 122.777344 186 C 123.582031 185.179688 124.410156 184.382812 125.257812 183.613281 C 126.109375 182.839844 126.980469 182.09375 127.875 181.371094 C 128.769531 180.652344 129.683594 179.957031 130.617188 179.285156 C 131.550781 178.617188 132.5 177.976562 133.472656 177.363281 C 134.441406 176.746094 135.429688 176.164062 136.433594 175.605469 C 137.4375 175.046875 138.457031 174.519531 139.492188 174.023438 C 140.527344 173.523438 141.578125 173.054688 142.636719 172.617188 C 143.699219 172.179688 144.773438 171.773438 145.859375 171.394531 C 146.945312 171.019531 148.039062 170.675781 149.144531 170.363281 C 150.25 170.050781 151.363281 169.769531 152.484375 169.519531 C 153.605469 169.273438 154.730469 169.054688 155.867188 168.871094 C 157 168.6875 158.136719 168.535156 159.28125 168.417969 C 160.421875 168.300781 161.566406 168.214844 162.714844 168.164062 C 163.863281 168.109375 165.011719 168.089844 166.160156 168.105469 C 167.308594 168.121094 168.453125 168.167969 169.601562 168.246094 C 170.746094 168.328125 171.886719 168.441406 173.027344 168.585938 C 174.167969 168.730469 175.300781 168.910156 176.429688 169.121094 C 177.558594 169.332031 178.679688 169.578125 179.796875 169.851562 C 180.910156 170.128906 182.015625 170.4375 183.113281 170.777344 C 184.210938 171.117188 185.296875 171.488281 186.371094 171.890625 L 189.988281 167.90625 L 204.496094 152.003906 C 198.460938 148.878906 192.140625 146.511719 185.539062 144.90625 C 178.933594 143.300781 172.234375 142.5 165.441406 142.507812 Z M 165.441406 142.507812 " fill-opacity="1" fill-rule="nonzero"/><g clip-path="url(#6b04bf83af)"><path fill="#f5e6ca" d="M 365.527344 33.882812 L 339.425781 37.308594 L 339.921875 10.527344 L 330.265625 1.738281 L 330.238281 1.777344 L 329.355469 48.550781 L 374.964844 42.566406 L 374.992188 42.527344 Z M 365.527344 33.882812 " fill-opacity="1" fill-rule="nonzero"/></g></svg>